<mxfile host="app.diagrams.net" agent="Mozilla/5.0 (Macintosh; Intel Mac OS X 10_15_7) AppleWebKit/537.36 (KHTML, like Gecko) Chrome/140.0.0.0 Safari/537.36" scale="1" border="0" version="28.2.3">
  <diagram id="JIO4U5yVURzNJD8ckPtT" name="Page-1">
    <mxGraphModel dx="976" dy="565" grid="1" gridSize="10" guides="1" tooltips="1" connect="1" arrows="1" fold="1" page="1" pageScale="1" pageWidth="850" pageHeight="1100" math="0" shadow="0">
      <root>
        <mxCell id="0" />
        <mxCell id="1" parent="0" />
        <mxCell id="cQVbqwfVoQa1j3ckQPkq-1" style="edgeStyle=orthogonalEdgeStyle;rounded=0;orthogonalLoop=1;jettySize=auto;html=1;exitX=0.5;exitY=0;exitDx=0;exitDy=0;entryX=0.5;entryY=1;entryDx=0;entryDy=0;" edge="1" parent="1" source="cQVbqwfVoQa1j3ckQPkq-3" target="cQVbqwfVoQa1j3ckQPkq-10">
          <mxGeometry relative="1" as="geometry" />
        </mxCell>
        <mxCell id="cQVbqwfVoQa1j3ckQPkq-2" style="edgeStyle=orthogonalEdgeStyle;rounded=0;orthogonalLoop=1;jettySize=auto;html=1;exitX=0;exitY=0.5;exitDx=0;exitDy=0;entryX=1;entryY=0.25;entryDx=0;entryDy=0;" edge="1" parent="1" source="cQVbqwfVoQa1j3ckQPkq-3" target="cQVbqwfVoQa1j3ckQPkq-12">
          <mxGeometry relative="1" as="geometry">
            <Array as="points">
              <mxPoint x="180" y="420" />
              <mxPoint x="180" y="330" />
            </Array>
          </mxGeometry>
        </mxCell>
        <mxCell id="cQVbqwfVoQa1j3ckQPkq-3" value="Feature embeddings" style="rounded=1;whiteSpace=wrap;html=1;" vertex="1" parent="1">
          <mxGeometry x="200" y="400" width="80" height="40" as="geometry" />
        </mxCell>
        <mxCell id="cQVbqwfVoQa1j3ckQPkq-4" style="edgeStyle=orthogonalEdgeStyle;rounded=0;orthogonalLoop=1;jettySize=auto;html=1;exitX=0.5;exitY=0;exitDx=0;exitDy=0;entryX=0.5;entryY=1;entryDx=0;entryDy=0;" edge="1" parent="1" source="cQVbqwfVoQa1j3ckQPkq-5" target="cQVbqwfVoQa1j3ckQPkq-3">
          <mxGeometry relative="1" as="geometry" />
        </mxCell>
        <mxCell id="cQVbqwfVoQa1j3ckQPkq-5" value="Embedding layers" style="rounded=1;whiteSpace=wrap;html=1;" vertex="1" parent="1">
          <mxGeometry x="200" y="480" width="80" height="40" as="geometry" />
        </mxCell>
        <mxCell id="cQVbqwfVoQa1j3ckQPkq-6" style="edgeStyle=orthogonalEdgeStyle;rounded=0;orthogonalLoop=1;jettySize=auto;html=1;exitX=0.5;exitY=0;exitDx=0;exitDy=0;entryX=0.5;entryY=1;entryDx=0;entryDy=0;" edge="1" parent="1" source="cQVbqwfVoQa1j3ckQPkq-8" target="cQVbqwfVoQa1j3ckQPkq-5">
          <mxGeometry relative="1" as="geometry" />
        </mxCell>
        <mxCell id="cQVbqwfVoQa1j3ckQPkq-7" style="edgeStyle=orthogonalEdgeStyle;rounded=0;orthogonalLoop=1;jettySize=auto;html=1;exitX=0;exitY=0.5;exitDx=0;exitDy=0;entryX=0.5;entryY=1;entryDx=0;entryDy=0;" edge="1" parent="1" source="cQVbqwfVoQa1j3ckQPkq-8" target="cQVbqwfVoQa1j3ckQPkq-12">
          <mxGeometry relative="1" as="geometry" />
        </mxCell>
        <mxCell id="cQVbqwfVoQa1j3ckQPkq-8" value="Sparse input features" style="rounded=1;whiteSpace=wrap;html=1;" vertex="1" parent="1">
          <mxGeometry x="200" y="560" width="80" height="40" as="geometry" />
        </mxCell>
        <mxCell id="cQVbqwfVoQa1j3ckQPkq-9" style="edgeStyle=orthogonalEdgeStyle;rounded=0;orthogonalLoop=1;jettySize=auto;html=1;exitX=0.5;exitY=0;exitDx=0;exitDy=0;entryX=1;entryY=0.5;entryDx=0;entryDy=0;" edge="1" parent="1" source="cQVbqwfVoQa1j3ckQPkq-10" target="cQVbqwfVoQa1j3ckQPkq-14">
          <mxGeometry relative="1" as="geometry" />
        </mxCell>
        <mxCell id="cQVbqwfVoQa1j3ckQPkq-10" value="Pairwise feature interactions" style="rounded=1;whiteSpace=wrap;html=1;" vertex="1" parent="1">
          <mxGeometry x="200" y="320" width="120" height="40" as="geometry" />
        </mxCell>
        <mxCell id="cQVbqwfVoQa1j3ckQPkq-11" style="edgeStyle=orthogonalEdgeStyle;rounded=0;orthogonalLoop=1;jettySize=auto;html=1;exitX=0.5;exitY=0;exitDx=0;exitDy=0;entryX=0;entryY=0.5;entryDx=0;entryDy=0;" edge="1" parent="1" source="cQVbqwfVoQa1j3ckQPkq-12" target="cQVbqwfVoQa1j3ckQPkq-14">
          <mxGeometry relative="1" as="geometry" />
        </mxCell>
        <mxCell id="cQVbqwfVoQa1j3ckQPkq-12" value="Per feature weights" style="rounded=1;whiteSpace=wrap;html=1;" vertex="1" parent="1">
          <mxGeometry x="40" y="320" width="80" height="40" as="geometry" />
        </mxCell>
        <mxCell id="cQVbqwfVoQa1j3ckQPkq-13" style="edgeStyle=orthogonalEdgeStyle;rounded=0;orthogonalLoop=1;jettySize=auto;html=1;exitX=0.5;exitY=0;exitDx=0;exitDy=0;entryX=0.5;entryY=1;entryDx=0;entryDy=0;" edge="1" parent="1" source="cQVbqwfVoQa1j3ckQPkq-14" target="cQVbqwfVoQa1j3ckQPkq-16">
          <mxGeometry relative="1" as="geometry" />
        </mxCell>
        <mxCell id="cQVbqwfVoQa1j3ckQPkq-14" value="Concatenate" style="rounded=1;whiteSpace=wrap;html=1;" vertex="1" parent="1">
          <mxGeometry x="120" y="240" width="80" height="40" as="geometry" />
        </mxCell>
        <mxCell id="cQVbqwfVoQa1j3ckQPkq-15" style="edgeStyle=orthogonalEdgeStyle;rounded=0;orthogonalLoop=1;jettySize=auto;html=1;exitX=0.5;exitY=0;exitDx=0;exitDy=0;entryX=0.5;entryY=1;entryDx=0;entryDy=0;" edge="1" parent="1" source="cQVbqwfVoQa1j3ckQPkq-16" target="cQVbqwfVoQa1j3ckQPkq-17">
          <mxGeometry relative="1" as="geometry" />
        </mxCell>
        <mxCell id="cQVbqwfVoQa1j3ckQPkq-16" value="Sigmoid" style="rounded=1;whiteSpace=wrap;html=1;" vertex="1" parent="1">
          <mxGeometry x="120" y="160" width="80" height="40" as="geometry" />
        </mxCell>
        <mxCell id="cQVbqwfVoQa1j3ckQPkq-17" value="Probability" style="rounded=1;whiteSpace=wrap;html=1;" vertex="1" parent="1">
          <mxGeometry x="120" y="80" width="80" height="40" as="geometry" />
        </mxCell>
      </root>
    </mxGraphModel>
  </diagram>
</mxfile>
